<?xml version="1.0" encoding="UTF-8" standalone="no"?>
<!-- Created with Inkscape (http://www.inkscape.org/) -->

<svg
   xmlns:dc="http://purl.org/dc/elements/1.1/"
   xmlns:cc="http://creativecommons.org/ns#"
   xmlns:rdf="http://www.w3.org/1999/02/22-rdf-syntax-ns#"
   xmlns:svg="http://www.w3.org/2000/svg"
   xmlns="http://www.w3.org/2000/svg"
   xmlns:sodipodi="http://sodipodi.sourceforge.net/DTD/sodipodi-0.dtd"
   xmlns:inkscape="http://www.inkscape.org/namespaces/inkscape"
   width="210mm"
   height="210mm"
   viewBox="0 0 210 210"
   version="1.1"
   id="svg8"
   inkscape:version="0.92.3 (2405546, 2018-03-11)"
   sodipodi:docname="dessin.svg">
  <defs
     id="defs2" />
  <sodipodi:namedview
     id="base"
     pagecolor="#ffffff"
     bordercolor="#666666"
     borderopacity="1.0"
     inkscape:pageopacity="0.0"
     inkscape:pageshadow="2"
     inkscape:zoom="0.49497475"
     inkscape:cx="391.67604"
     inkscape:cy="195.11242"
     inkscape:document-units="mm"
     inkscape:current-layer="layer1"
     showgrid="false"
     inkscape:window-width="1600"
     inkscape:window-height="840"
     inkscape:window-x="0"
     inkscape:window-y="32"
     inkscape:window-maximized="1"
     inkscape:snap-smooth-nodes="true"
     inkscape:snap-intersection-paths="true"
     inkscape:object-paths="true" />
  <metadata
     id="metadata5">
    <rdf:RDF>
      <cc:Work
         rdf:about="">
        <dc:format>image/svg+xml</dc:format>
        <dc:type
           rdf:resource="http://purl.org/dc/dcmitype/StillImage" />
        <dc:title></dc:title>
      </cc:Work>
    </rdf:RDF>
  </metadata>
  <g
     inkscape:label="Calque 1"
     inkscape:groupmode="layer"
     id="layer1"
     transform="translate(0,-87)">
    <ellipse
       style="fill:#000000;fill-opacity:1;stroke:#0c0c0c;stroke-width:0.56869233;stroke-miterlimit:4;stroke-dasharray:none;stroke-opacity:1"
       id="path934"
       cx="105.05216"
       cy="191.41333"
       rx="104.23327"
       ry="104.23325" />
    <g
       id="g909"
       transform="matrix(0.88041233,0,0,0.88041233,22.087039,56.524692)"
       style="fill:#ffffff">
      <path
         sodipodi:nodetypes="sscsccccscscccccccccccscccccccs"
         inkscape:connector-curvature="0"
         id="path826-6"
         d="m 148.59261,213.5653 c 0,-4.17329 0.19212,-4.70588 1.69893,-4.70588 0.93438,0 3.01709,-0.55075 4.62824,-1.22394 4.86601,-2.03314 5.37723,-4.42582 5.37723,-25.16672 0,-14.95333 0.23509,-18.57922 1.3571,-20.944 1.54204,-3.24959 4.64742,-5.71755 9.26624,-7.36427 l 3.17111,-1.13054 -2.35351,-0.92822 c -1.29441,-0.5105 -2.67634,-0.92819 -3.07097,-0.92819 -1.1076,0 -5.77783,-4.14805 -6.92575,-6.15139 -0.69775,-1.21769 -1.15999,-8.27429 -1.44422,-22.04721 l -0.41801,-20.25634 -2.17153,-2.16986 c -1.35902,-1.357977 -3.47046,-2.344088 -5.64319,-2.635516 l -3.47167,-0.465626 v -4.595789 -4.595788 l 4.32048,0.573123 c 8.31097,1.102514 13.0937,4.150605 15.83611,10.092649 1.34882,2.922487 1.54571,5.639947 1.56176,21.554577 0.019,19.64318 0.54696,22.67335 4.38139,25.1858 1.09702,0.71879 3.29165,1.52526 4.87698,1.79214 7.04261,1.18561 6.64453,0.8436 6.64453,5.70876 v 4.46576 l -4.19683,0.49707 c -2.30823,0.27332 -5.31186,1.15572 -6.67471,1.96077 -4.58337,2.70747 -5.01108,4.87439 -5.03136,25.49035 -0.0158,16.37536 -0.20918,19.09751 -1.56176,22.02838 -2.74241,5.94205 -7.52514,8.99014 -15.83611,10.09262 l -4.32048,0.57312 z"
         style="fill:#ffffff;stroke-width:0.83602792" />
      <path
         sodipodi:nodetypes="scccccccccscssscccccccccsscs"
         inkscape:connector-curvature="0"
         id="path826-6-7"
         d="m 30.812098,216.8948 c -5.510737,-1.48248 -8.612893,-3.62333 -11.140188,-7.68799 -1.856282,-2.9855 -1.958027,-4.00412 -2.358025,-23.60285 -0.294492,-14.42848 -0.734209,-21.03611 -1.487819,-22.35507 -1.445856,-2.53055 -5.271351,-4.38598 -10.2615126,-4.97698 l -4.1351858,-0.48977 v -4.4438 -4.44384 l 3.1351122,-0.52629 c 5.5286852,-0.9281 8.2753642,-2.055 10.3273952,-4.23706 1.976543,-2.1018 2.009752,-2.41364 2.423527,-22.7575 0.472231,-23.218141 0.68757,-24.126897 6.759044,-28.52504 3.209904,-2.325258 9.396489,-4.22385 13.763287,-4.22385 1.926177,0 2.048903,0.275534 2.048903,4.598127 0,4.568361 -0.0158,4.598158 -2.549603,4.598158 -3.274744,0 -7.14517,2.008205 -8.475821,4.397795 -0.713576,1.28139 -1.183184,8.25764 -1.487851,22.10153 l -0.445151,20.2291 -2.826843,2.91472 c -2.581643,2.66187 -3.917192,3.43021 -8.877525,5.10723 -1.369864,0.46313 -0.93337,0.84841 2.415028,2.13166 4.682271,1.79445 7.522702,4.18097 8.766585,7.36569 0.476875,1.22088 0.981652,10.85363 1.12381,21.44515 0.18706,13.94776 0.560389,19.76468 1.358868,21.18045 1.225335,2.17271 5.63833,4.31836 8.881601,4.31836 2.008616,0 2.116902,0.23541 2.116902,4.59816 0,4.47218 -0.06288,4.59667 -2.299063,4.54315 -1.264485,-0.0316 -4.313462,-0.59692 -6.775475,-1.25924 z"
         style="fill:#ffffff;stroke-width:0.83602804" />
      <g
         transform="matrix(3.1597901,0,0,3.1597901,-230.78676,-472.34672)"
         id="g890"
         style="fill:#ffffff">
        <path
           style="fill:#ffffff;stroke-width:0.26458338"
           d="m 106.32405,208.17355 v -13.09687 h -4.63021 -4.630208 v -1.5875 -1.5875 h 10.980208 10.9802 v 1.5875 1.5875 h -4.49791 -4.49792 v 13.09687 13.09688 h -1.85208 -1.85208 z"
           id="path826-3"
           inkscape:connector-curvature="0"
           sodipodi:nodetypes="ccccccccccccccccc" />
        <path
           style="fill:#ffffff;stroke-width:0.26458341"
           d="m 97.460502,207.63031 c -0.29104,-0.0679 -1.184013,-0.25565 -1.984375,-0.41726 -4.679392,-0.94489 -8.306725,-4.78539 -9.402171,-9.95469 -0.495061,-2.33614 -0.485293,-6.89264 0.01937,-9.03356 0.916922,-3.88987 3.716366,-7.46273 7.080917,-9.03719 3.918039,-1.83347 9.500797,-2.0899 14.312607,-0.65741 2.1346,0.63548 2.13678,0.63927 1.36741,2.37895 -0.54957,1.24267 -0.76081,1.48946 -1.13941,1.33116 -2.49268,-1.04222 -3.75952,-1.27736 -6.94705,-1.28944 -2.845638,-0.0108 -3.519538,0.072 -4.827766,0.59303 -4.031859,1.60577 -6.554433,5.89551 -6.547323,11.13398 0.0075,5.53739 2.33471,9.65489 6.294654,11.1371 1.954907,0.73172 5.376765,0.94953 8.330475,0.53025 l 2.30621,-0.32737 v -4.47059 -4.47059 h -3.175 -3.174998 v -1.5875 -1.5875 h 5.027078 5.02708 v 7.12814 c 0,4.27545 -0.10179,7.19105 -0.25434,7.28533 -1.23421,0.76278 -10.457778,1.74793 -12.313368,1.31516 z"
           id="path826-3-5"
           inkscape:connector-curvature="0"
           sodipodi:nodetypes="ccscsccccsccccccccccccsccc" />
      </g>
    </g>
  </g>
</svg>
