<?xml version="1.0" encoding="UTF-8" standalone="no"?>
<!-- Created with Inkscape (http://www.inkscape.org/) -->

<svg
   xmlns:dc="http://purl.org/dc/elements/1.1/"
   xmlns:cc="http://creativecommons.org/ns#"
   xmlns:rdf="http://www.w3.org/1999/02/22-rdf-syntax-ns#"
   xmlns:svg="http://www.w3.org/2000/svg"
   xmlns="http://www.w3.org/2000/svg"
   xmlns:sodipodi="http://sodipodi.sourceforge.net/DTD/sodipodi-0.dtd"
   xmlns:inkscape="http://www.inkscape.org/namespaces/inkscape"
   width="100mm"
   height="100mm"
   viewBox="0 0 100 100"
   version="1.1"
   id="svg8"
   inkscape:version="0.92.3 (2405546, 2018-03-11)"
   sodipodi:docname="pogostream.svg">
  <defs
     id="defs2" />
  <sodipodi:namedview
     id="base"
     pagecolor="#000000"
     bordercolor="#666666"
     borderopacity="1.0"
     inkscape:pageopacity="0"
     inkscape:pageshadow="2"
     inkscape:zoom="1.4"
     inkscape:cx="264.28219"
     inkscape:cy="172.57272"
     inkscape:document-units="mm"
     inkscape:current-layer="layer1"
     showgrid="false"
     inkscape:snap-others="false"
     inkscape:object-nodes="false"
     inkscape:snap-smooth-nodes="false"
     inkscape:snap-midpoints="true"
     inkscape:window-width="1600"
     inkscape:window-height="840"
     inkscape:window-x="0"
     inkscape:window-y="32"
     inkscape:window-maximized="1"
     inkscape:pagecheckerboard="false">
    <inkscape:grid
       type="xygrid"
       id="grid830" />
  </sodipodi:namedview>
  <metadata
     id="metadata5">
    <rdf:RDF>
      <cc:Work
         rdf:about="">
        <dc:format>image/svg+xml</dc:format>
        <dc:type
           rdf:resource="http://purl.org/dc/dcmitype/StillImage" />
        <dc:title></dc:title>
      </cc:Work>
    </rdf:RDF>
  </metadata>
  <g
     inkscape:label="Calque 1"
     inkscape:groupmode="layer"
     id="layer1"
     transform="translate(0,-197)">
    <path
       style="fill:#ffffff;stroke-width:0.06293195"
       d="m 70.492641,201.76191 c -0.725232,-0.0143 -1.408882,0.0762 -2.016211,0.27461 -1.317008,0.43026 -3.894058,1.58773 -4.653731,2.09046 l -0.239851,0.15874 -0.396464,-0.12786 c -2.213525,-0.7143 -3.703835,-0.99534 -5.588674,-1.0538 -1.709487,-0.053 -2.796252,0.0827 -4.342226,0.54148 -0.80221,0.2381 -0.949822,0.29585 -2.045387,0.79938 -1.569771,0.72147 -2.685024,1.42615 -3.439017,2.17282 -0.612178,0.60627 -1.673892,1.93749 -2.371491,2.97349 -0.709747,1.05405 -0.86817,1.31482 -1.489746,2.4543 -1.570726,2.87946 -1.54683,2.84007 -1.788374,2.92583 -0.658326,0.23382 -3.413726,1.56615 -4.318197,2.08788 -0.31007,0.17886 -1.073529,0.61186 -1.69655,0.96242 -1.754514,0.98717 -2.870962,1.75532 -4.688489,3.22619 -0.398041,0.32214 -0.961504,0.77659 -1.252028,1.00963 -2.991955,2.39969 -3.327175,2.69865 -4.565778,4.0736 -1.531934,1.70057 -1.98103,2.22944 -2.858914,3.36695 -0.440752,0.57112 -0.987369,1.27921 -1.214707,1.57341 -0.728238,0.94248 -1.559193,2.38388 -2.004196,3.47635 l -0.147172,0.36129 -0.444945,-0.0459 c -0.244716,-0.0251 -0.930285,-0.0458 -1.523647,-0.0463 -0.973378,0 -1.09163,0.0108 -1.211269,0.11885 -0.08692,0.0786 -0.132584,0.19586 -0.132584,0.3407 0,0.1882 0.05812,0.27817 0.393026,0.60498 0.329616,0.32162 1.172627,1.06445 1.729597,1.52451 l 0.140305,0.11585 -0.304639,0.75516 c -0.167465,0.41537 -0.421498,1.07943 -0.564659,1.47559 -0.143162,0.39616 -0.284273,0.74379 -0.313226,0.77276 -0.02898,0.029 -0.641528,0.0183 -1.361446,-0.0244 l -1.309113,-0.0776 -0.14889,0.17332 c -0.08203,0.0953 -0.149315,0.2104 -0.149315,0.25574 0,0.17516 0.277614,0.41931 0.835414,0.73456 1.108178,0.62633 1.493175,0.88417 1.493175,1.0006 0,0.12314 -0.240997,1.0896 -0.451388,1.80984 l -0.133439,0.45611 h -1.044792 c -0.574731,0 -1.549503,-0.0475 -2.166405,-0.10683 -1.250684,-0.12028 -1.321285,-0.10743 -1.351575,0.24369 -0.01818,0.21057 0.01669,0.25031 0.880882,1.00577 0.954388,0.83423 1.515029,1.25715 2.244487,1.69225 0.246925,0.14728 0.449246,0.29459 0.449246,0.32739 0,0.13049 -0.325522,1.11644 -0.368582,1.11644 -0.02532,0 -0.132982,1.32175 -0.287294,1.16358 0.0025,0.0355 -2.493231,-0.50828 -3.382681,-0.49598 -0.471283,0.14646 -0.843152,0.23647 -0.41674,1.05112 0.770899,1.47277 2.927316,4.02361 3.145387,4.40793 -1.948714,-0.0413 -4.1870073,-0.0796 -6.5236004,-0.11707 -0.1467486,-0.002 0.04932,0.60334 -0.098118,0.60102 -0.1986676,-0.003 4.3781864,3.03386 4.1782734,3.03047 -0.325829,-0.006 -0.207112,0.68019 -0.480989,0.68161 -1.1597651,0.006 -2.3851579,-0.63369 -3.8648819,-0.72753 -0.6379501,-0.0404 0.9384134,1.50325 0.2998904,1.45393 -0.5131466,0.0624 -3.2912206,-0.0804 -3.1766797,0.4237 0,0 2.8885963,1.19683 3.1708343,1.90216 0.1955374,0.48864 -4.7672498,0.50362 -4.5979169,0.94714 2.6851461,1.85707 5.7521522,1.53916 7.8939308,2.71314 0.867721,0.48612 1.587133,1.32233 1.672247,2.38686 0.124439,0.48023 -0.189252,3.38395 -0.424536,3.50666 -0.985301,2.35002 2.250681,5.53417 1.989301,5.1172 0.70048,0.17628 -7.350862,9.80619 -6.2486539,9.93091 0.4845757,0.0548 -2.0578338,6.37416 -1.5386509,6.43999 1.3145427,0.16673 5.2593008,0.21014 7.5461088,0.13217 22.199771,-0.99497 36.807826,0.48271 53.649607,0.93181 0.804692,-0.0915 6.745483,0.0345 8.005225,0.0345 l 0.38767,-14.9043 0.115904,-12.2755 c -0.39526,-1.07795 7.436398,-13.25301 7.018936,-14.40043 -0.01088,-0.011 0.204373,-0.46891 0.478415,-1.01778 0.574137,-1.14992 0.862229,-1.84887 1.837283,-4.45678 0.387747,-1.03707 0.827983,-2.15936 0.978285,-2.49375 0.150302,-0.33444 0.443833,-1.09986 0.652198,-1.7013 0.208349,-0.60143 0.566943,-1.56095 0.79678,-2.13207 1.091696,-2.71241 1.443,-3.59885 1.63348,-4.12208 0.113395,-0.31152 0.309771,-0.81621 0.436377,-1.12162 0.126588,-0.30541 0.386275,-1.15374 0.577105,-1.88534 0.190821,-0.73159 0.413966,-1.51525 0.496001,-1.74162 0.08203,-0.22638 0.318482,-0.87899 0.525617,-1.45027 0.207137,-0.57126 0.50961,-1.53424 0.672358,-2.13979 0.162757,-0.60554 0.332123,-1.17183 0.376296,-1.25849 0.239137,-0.46928 0.824943,-2.2965 1.008765,-3.14637 0.116027,-0.53648 0.311531,-1.38585 0.434641,-1.88707 0.206373,-0.84023 0.68884,-3.58375 0.852136,-4.84681 0.03803,-0.2942 0.182959,-1.20025 0.322234,-2.01364 0.425284,-2.48335 0.429219,-3.68122 0.01802,-5.47539 -0.273935,-1.19529 -0.578226,-1.86382 -1.266194,-2.78212 -0.701361,-0.93615 -1.117552,-1.3193 -2.283528,-2.10246 -1.699133,-1.14127 -2.5839,-1.56786 -4.1663,-2.00765 -1.362003,-0.37847 -1.797233,-0.42261 -3.699894,-0.37586 -0.917233,0.0226 -2.007626,0.0815 -2.422978,0.13129 -0.415353,0.0498 -1.179942,0.11801 -1.699125,0.15147 -0.519192,0.0335 -1.24468,0.0941 -1.612033,0.13474 -0.986231,0.10898 -1.380279,0.007 -3.233923,-0.84184 -1.280558,-0.58594 -2.604874,-0.89966 -3.813594,-0.92338 z m -0.415768,1.07826 c 0.86244,-0.01 1.854998,0.0949 2.655962,0.30166 1.253623,0.32352 2.614555,0.88179 2.357326,0.96711 -0.43166,0.1432 -3.743242,0.44499 -6.605154,0.60202 -1.61151,0.0884 -3.146391,0.0579 -3.146391,-0.0627 0,-0.2538 2.304667,-1.38299 3.396115,-1.66395 0.354192,-0.0912 0.824678,-0.13825 1.342142,-0.14418 z m 14.452899,1.33228 c 0.316929,0.004 0.535424,0.0269 0.821249,0.0699 0.675928,0.10175 1.724465,0.37054 2.454289,0.62948 0.451339,0.16013 1.761788,0.76242 1.761788,0.80965 0,0.0164 -0.403555,0.23946 -0.896765,0.49559 -1.071313,0.55631 -1.731814,0.97837 -2.780393,1.77594 -0.689304,0.52428 -1.274322,1.01618 -3.555729,2.99105 -1.365781,1.18229 -1.831982,1.57454 -2.301122,1.93599 -1.446645,1.11457 -2.280963,1.79704 -3.520977,2.88036 -0.278692,0.24347 -0.804078,0.68047 -1.167503,0.97101 -0.363434,0.29051 -0.94411,0.77294 -1.290223,1.07224 -0.346131,0.2993 -1.223716,1.04265 -1.950575,1.65151 -0.726868,0.60883 -1.633323,1.38252 -2.014068,1.7193 -0.380738,0.33676 -0.971801,0.83865 -1.313389,1.11559 -0.34158,0.27691 -0.794388,0.66338 -1.006607,0.85899 -0.441142,0.40664 -1.314218,1.13847 -1.959151,1.64208 -0.242284,0.18917 -0.738152,0.59895 -1.10186,0.91049 -1.449825,1.24181 -1.882132,1.59862 -2.49377,2.0604 -0.350647,0.26475 -0.83915,0.65544 -1.085561,0.86803 -0.246393,0.21259 -1.275676,0.97769 -2.287388,1.69997 -1.652428,1.17971 -2.825977,1.93 -4.642573,2.96876 -0.328818,0.18803 -1.164348,0.69178 -1.856601,1.11945 -0.692252,0.42771 -1.479325,0.90691 -1.749324,1.06497 -1.548391,0.90649 -3.965989,2.6542 -4.984112,3.60294 -1.026924,0.95693 -2.31434,2.34401 -3.43817,3.70461 -0.298728,0.36169 -0.818616,0.95512 -1.155489,1.31854 -0.33688,0.36343 -0.826654,0.91563 -1.088134,1.22715 -1.004523,1.19673 -2.207015,2.394 -3.454893,3.43988 -0.44541,0.37331 -2.286633,1.97978 -3.442454,3.00352 -0.523193,0.4634 -1.036913,0.91663 -1.141764,1.00703 -0.104843,0.0904 -0.430656,0.3785 -0.723846,0.6406 -0.293206,0.26212 -0.915638,0.78991 -1.38291,1.17266 -0.467264,0.38276 -1.288346,1.06939 -1.824841,1.52578 -0.536503,0.45642 -1.192695,0.99101 -1.457995,1.18769 -0.57165,0.4238 -1.625991,1.01818 -1.805968,1.01818 -0.06991,0 -0.224134,-0.0573 -0.342403,-0.127 -0.11826,-0.0697 -0.452309,-0.20688 -0.742726,-0.30508 -0.290408,-0.0982 -0.754592,-0.28412 -1.031491,-0.41319 -0.276899,-0.12906 -0.779069,-0.32908 -1.115593,-0.44453 -0.336523,-0.11544 -0.822569,-0.31149 -1.080404,-0.4355 -0.597821,-0.28773 -0.667634,-0.28838 -0.667634,-0.005 0,0.32926 0.176814,1.44263 0.314081,1.97845 0.06634,0.259 0.108853,0.48284 0.0944,0.49729 -0.05056,0.0506 -1.129948,-0.25103 -1.632201,-0.4561 -0.278651,-0.11376 -0.654723,-0.25432 -0.835397,-0.31194 -0.180684,-0.0576 -0.700963,-0.28853 -1.156361,-0.51316 -0.455391,-0.22463 -0.878955,-0.40804 -0.940954,-0.40804 -0.33488,0 -0.481155,0.21421 -0.353554,0.51745 0.11812,0.28071 0.943147,1.37865 1.41594,1.88406 l 0.386591,0.41321 -0.329524,0.0695 c -0.181297,0.0382 -0.804543,0.16792 -1.38462,0.28834 -0.580086,0.12041 -1.082588,0.23628 -1.116888,0.25743 -0.130218,0.0805 -0.04417,0.20435 0.567249,0.81782 l 0.629448,0.6316 -0.645332,0.32566 c -0.642832,0.3243 -0.812763,0.40097 -1.52236,0.6861 -0.205584,0.0826 -0.3841,0.15018 -0.396887,0.15018 -0.0323,0 0.04218,-0.12103 0.223544,-0.36257 0.200345,-0.26689 0.442429,-0.93806 0.488287,-1.35417 0.07207,-0.6536 -0.289445,-1.85816 -0.629024,-2.09602 -0.09021,-0.0632 -0.324169,-0.0888 -0.811377,-0.0888 h -0.684372 l 0.131296,-0.20466 c 0.137823,-0.21499 0.144316,-0.21657 0.538064,-0.11758 0.48754,0.12259 0.925544,-0.073 1.491025,-0.66593 0.574041,-0.60194 0.725157,-0.99891 0.844414,-2.2213 l 0.03388,-0.34627 0.387463,-0.0145 c 0.528249,-0.02 0.983258,-0.25545 1.463574,-0.75729 0.995688,-1.04034 1.375795,-2.33029 0.956398,-3.24639 -0.2128,-0.46481 -0.449296,-0.76815 -0.659912,-0.84612 -0.09386,-0.0348 -0.407166,-0.10674 -0.696387,-0.16004 -0.289213,-0.0534 -0.538081,-0.10905 -0.552644,-0.12357 -0.01453,-0.0145 0.06211,-0.26398 0.169914,-0.55438 0.298745,-0.80459 0.457524,-1.33144 0.447519,-1.48458 -0.005,-0.0761 0.01395,-0.15275 0.04251,-0.17035 0.02848,-0.0176 0.465703,0.0694 0.971426,0.19352 0.505724,0.12405 0.96045,0.21011 1.010468,0.19093 0.181613,-0.0697 0.527967,-0.89557 0.642749,-1.53308 0.09129,-0.50703 0.09903,-0.69012 0.04293,-1.01777 -0.07996,-0.46679 -0.340385,-1.01506 -0.626019,-1.31854 -0.191294,-0.20321 -0.220961,-0.21325 -0.566377,-0.19265 -0.357838,0.0213 -0.364738,0.0184 -0.384449,-0.15317 -0.02001,-0.17448 0.330479,-1.41252 0.429078,-1.51549 0.02881,-0.0301 0.215755,0.0235 0.419205,0.12057 0.202014,0.0964 0.461045,0.17326 0.575387,0.17076 0.417561,-0.009 0.994285,-0.5589 1.157207,-1.10272 0.09677,-0.32299 -0.01353,-1.02013 -0.189218,-1.1958 -0.08634,-0.0864 -0.264187,-0.13802 -0.610143,-0.17678 -0.268563,-0.0301 -0.500543,-0.0672 -0.515746,-0.0824 -0.02142,-0.0215 0.407855,-1.21732 0.832832,-2.31957 0.03222,-0.0836 0.06883,-0.0946 0.157468,-0.0472 0.187001,0.10011 0.565937,0.071 0.777051,-0.0596 0.422186,-0.26125 0.916319,-1.37307 0.918644,-2.06726 0.0017,-0.49313 -0.109177,-0.76574 -0.402467,-0.98944 -0.27621,-0.21068 -0.273968,-0.22048 0.206813,-0.9547 0.200079,-0.30556 0.658251,-1.03691 1.01819,-1.62534 0.693497,-1.13369 1.404174,-2.11922 2.382641,-3.30385 2.007501,-2.43049 5.088514,-5.51189 7.148358,-7.14878 0.629522,-0.50027 3.478448,-2.42591 4.153861,-2.80787 0.276908,-0.1566 0.899406,-0.50813 1.383766,-0.78092 0.484368,-0.27276 2.096626,-1.10468 3.582328,-1.84887 l 2.701015,-1.35329 0.375872,-0.69209 c 2.479522,-4.56507 3.27538,-5.77411 4.826211,-7.33502 0.960965,-0.96721 1.399367,-1.27936 2.611765,-1.85788 1.467386,-0.7002 3.093277,-1.26159 4.074053,-1.40693 2.419657,-0.35858 4.23319,-0.23232 7.568418,0.5269 1.211651,0.27581 2.131898,0.44277 3.335619,0.60585 1.228921,0.16649 3.756037,-0.0187 7.83488,-0.57367 2.30701,-0.31397 3.001221,-0.37958 4.594083,-0.43595 0.84801,-0.03 1.895924,-0.097 2.32858,-0.14888 0.432657,-0.0519 1.494587,-0.12617 2.3599,-0.16477 0.680533,-0.0303 1.09601,-0.0445 1.412938,-0.0403 z m 5.932787,1.90809 c 0.249491,-0.007 0.819381,0.24594 1.112596,0.49388 0.247954,0.20964 1.039777,1.1892 1.325411,1.63949 0.51279,0.80844 0.962717,3.0154 0.959404,4.71249 -0.0017,0.87919 -0.03429,1.19863 -0.255718,2.51738 -0.139525,0.83069 -0.299135,1.83613 -0.354865,2.23418 -0.298687,2.13363 -0.599557,3.84284 -0.858572,4.87515 -0.103904,0.41408 -0.283068,1.19269 -0.398165,1.73044 -0.1303,0.60859 -0.345865,1.34595 -0.570687,1.95313 -0.581821,1.57151 -0.638913,1.74537 -0.909627,2.75895 -0.141791,0.53085 -0.467139,1.52626 -0.72299,2.2123 -0.439125,1.17747 -0.698239,2.02845 -1.06452,3.49867 -0.08703,0.34925 -0.268663,0.88745 -0.403754,1.19583 -0.135116,0.30839 -0.295639,0.71669 -0.357007,0.90707 -0.119664,0.37138 -1.168077,2.99397 -1.446404,3.61838 -0.201441,0.45191 -0.761151,1.96247 -1.131028,3.05241 -0.146815,0.43268 -0.411982,1.1123 -0.58912,1.51034 -0.177138,0.39805 -0.588497,1.44553 -0.914351,2.32817 -0.950673,2.57497 -1.271529,3.33977 -2.07285,4.94035 -0.415884,0.8307 -0.890995,1.82168 -1.055952,2.20242 -0.661921,1.52779 -1.260705,2.76195 -1.802539,3.71621 -0.835713,1.47183 -1.845009,3.34043 -1.845009,3.41541 0,0.0359 -0.0357,0.10362 -0.07896,0.15062 -0.04326,0.047 -0.187043,0.2969 -0.31966,0.55521 -0.884086,1.72205 -1.21738,2.34947 -1.737318,3.26997 -0.322583,0.57111 -0.656284,1.14786 -0.741432,1.28165 l -0.154902,0.24328 0.100409,1.42453 c 0.05522,0.78344 0.172862,2.40149 0.261298,3.59563 0.166834,2.25222 0.238821,5.69629 0.134302,6.42495 l -0.05065,0.35226 -0.546633,11.56227 c -0.127743,0.0231 -0.668921,2.94943 -0.668921,2.94943 0,0 -43.95654,-0.89282 -60.327703,-0.46721 -0.79609,0.0305 -1.829549,0.0523 -2.296821,0.0497 -0.8458677,-0.005 -2.1597546,-0.0874 -2.3169982,-0.14501 -0.098998,-0.0363 1.2422978,-6.57888 2.0676982,-7.88385 1.430835,-2.26219 4.196357,-6.27178 4.614682,-6.69011 0.04617,-0.0462 0.328163,0.10404 0.935383,0.49816 2.58566,1.75869 5.732883,2.81995 8.231767,3.13866 1.266261,0.1599 1.413981,0.16548 3.524406,0.13516 1.881236,-0.027 2.308164,-0.051 2.926286,-0.16476 1.397374,-0.25726 2.142907,-0.47424 3.870237,-1.12589 2.321689,-0.87589 2.702991,-1.04551 3.98051,-1.77078 0.584977,-0.3321 0.707979,-0.42742 0.707979,-0.54879 0,-0.26941 -0.112632,-0.23638 -1.730884,0.51146 -0.96177,0.44448 -1.958662,0.85812 -2.485625,1.03106 -0.574905,0.18868 -2.753349,0.7482 -3.934603,1.01046 -0.780812,0.17338 -3.127411,0.38404 -4.279147,0.38404 -2.250216,0 -5.687663,-0.66725 -7.204569,-1.39835 -1.460062,-0.70372 -3.261812,-1.82482 -4.2165,-2.62335 -1.011024,-0.84568 -2.270891,-2.23199 -2.581309,-2.84047 -0.115313,-0.22603 -0.122313,-0.30066 -0.06734,-0.73887 0.06344,-0.50624 0.247357,-1.45734 0.297341,-1.53823 0.01578,-0.0256 0.06651,-0.23806 0.112847,-0.47241 0.04633,-0.23437 0.257196,-1.09775 0.468551,-1.91839 0.421854,-1.63793 0.422792,-1.67077 0.06178,-1.93468 -0.617782,-0.45163 -3.416059,-2.84543 -3.632529,-3.10737 -0.1014881,-0.12277 -0.09727,-0.12488 0.463395,-0.23468 0.207676,-0.0407 0.476987,-0.11014 0.598128,-0.15447 0.121142,-0.0443 0.503441,-0.15714 0.849563,-0.25101 0.34613,-0.0939 0.770899,-0.23423 0.94396,-0.31193 0.173061,-0.0777 0.457981,-0.18867 0.633317,-0.24629 0.175327,-0.0576 0.739646,-0.31362 1.254187,-0.56896 l 0.935806,-0.46427 0.444522,0.37631 c 0.672391,0.56896 1.903588,1.36304 2.284815,1.47387 0.53872,0.15661 0.876705,0.0387 1.3902,-0.48571 0.503482,-0.51417 0.878765,-1.36207 0.9697,-2.19085 0.03047,-0.27792 0.153781,-0.20317 0.292633,0.17763 0.18794,0.51545 0.794605,1.41511 1.229295,1.82313 0.336997,0.31632 0.376096,0.33596 0.609712,0.30466 0.306358,-0.0411 0.62596,-0.29359 1.275634,-1.00919 0.557361,-0.61391 0.823491,-1.13573 0.930227,-1.82227 0.06892,-0.44351 0.03628,-1.06448 -0.06476,-1.22802 -0.03072,-0.0497 -0.255702,-0.0949 -0.588688,-0.11841 l -0.538911,-0.0382 0.197796,-0.36301 c 0.167016,-0.3064 0.252114,-0.39012 0.544067,-0.53291 0.477285,-0.23342 1.37278,-0.79186 1.911094,-1.19195 0.477626,-0.35503 0.697757,-0.53458 2.468885,-2.0128 0.619659,-0.51718 1.28241,-1.06938 1.472584,-1.22714 0.190157,-0.15776 0.617939,-0.52746 0.950818,-0.82167 3.409325,-3.01322 4.945568,-4.31863 5.81309,-4.93908 0.450741,-0.32234 1.13381,-0.86917 1.518059,-1.21556 0.662494,-0.59722 2.520938,-2.64122 3.33004,-3.66255 1.029348,-1.2994 2.595565,-2.98854 3.869382,-4.17276 0.927735,-0.86248 2.592103,-2.11482 4.499693,-3.38624 0.242283,-0.16149 0.935939,-0.57098 1.541656,-0.90965 1.434564,-0.80204 3.098309,-1.77385 4.122103,-2.40795 1.609783,-0.99704 4.588204,-3.08639 5.277176,-3.70205 0.16803,-0.15014 0.692203,-0.56697 1.164507,-0.92593 0.472303,-0.35897 1.311802,-1.0429 1.865609,-1.52021 0.553798,-0.47733 1.403344,-1.18571 1.88792,-1.57384 0.484584,-0.38812 1.245918,-1.02769 1.692266,-1.42152 0.446348,-0.39383 1.055478,-0.91214 1.353301,-1.15164 0.297815,-0.23948 0.895321,-0.75086 1.327977,-1.13619 0.432657,-0.38531 1.381607,-1.19278 2.108466,-1.79481 0.726868,-0.60202 1.475299,-1.23377 1.663521,-1.40349 0.188214,-0.16972 0.570521,-0.48209 0.849563,-0.69424 0.279049,-0.21215 1.022208,-0.8274 1.651506,-1.36746 1.007013,-0.86422 3.174813,-2.62987 3.796008,-3.0919 0.121141,-0.0901 0.460953,-0.38337 0.755164,-0.65134 0.294203,-0.26797 0.818376,-0.71628 1.164506,-0.99673 0.346122,-0.28043 1.170414,-0.9635 1.831712,-1.51763 2.381065,-1.99523 2.464436,-2.05787 3.737662,-2.80099 0.43264,-0.25253 1.047989,-0.61324 1.36745,-0.80195 0.363193,-0.21452 0.657778,-0.34551 0.786501,-0.34884 z m -17.103705,0.62817 c -0.421572,0.003 -0.73782,0.13137 -0.852136,0.34498 -0.13138,0.24547 -0.03629,1.26437 0.18407,1.97116 0.246087,0.78918 0.551781,1.31478 1.104434,1.90079 0.547588,0.58065 0.683891,0.6007 1.089845,0.16004 0.521375,-0.56595 0.900194,-1.40667 0.900194,-1.99775 0,-1.24421 -1.167528,-2.38902 -2.426407,-2.37922 z m -17.828851,0.11672 c -0.302663,-0.007 -0.572081,0.002 -0.78606,0.027 -1.107248,0.13375 -2.342571,0.51306 -3.054145,0.93753 -0.923949,0.55115 -2.118637,1.5581 -2.607472,2.19772 -0.83181,1.08836 -0.777683,1.37793 0.100832,0.53805 1.070018,-1.02294 2.460824,-1.9672 3.470337,-2.3569 0.727997,-0.28101 2.071725,-0.55993 2.698017,-0.55993 1.923557,0 3.998528,0.64089 6.070527,1.87504 0.900825,0.53655 1.662508,1.15512 2.689432,2.18398 0.181422,0.18186 0.189335,0.18363 0.2081,0.052 0.04218,-0.29639 -0.534485,-1.13344 -1.238312,-1.7974 -1.273932,-1.20176 -3.169499,-2.32057 -4.543027,-2.68128 -0.894731,-0.235 -2.100238,-0.3944 -3.008229,-0.41576 z m -0.480988,3.65399 c -1.241244,-0.009 -1.965272,0.25922 -2.893248,1.07052 -1.235863,1.08048 -1.748171,2.20991 -1.603008,3.53472 0.167332,1.52712 1.450754,2.82307 3.065295,3.09489 0.806569,0.13583 1.975775,0.039 2.782111,-0.22997 1.615339,-0.53889 2.731496,-1.94266 2.816436,-3.54243 0.03878,-0.72984 -0.06842,-1.19915 -0.435512,-1.90595 -0.464109,-0.89361 -1.181885,-1.43536 -2.441851,-1.84329 -0.455515,-0.14748 -0.647142,-0.17434 -1.290223,-0.17849 z m 0.512308,1.74074 c 0.114549,-0.002 0.237874,0.0238 0.37544,0.0764 0.319909,0.12217 0.52756,0.39115 0.528191,0.6835 4.4e-4,0.26741 -0.184751,0.60702 -0.403762,0.74059 -0.250287,0.15253 -0.643986,0.15061 -0.898043,-0.004 -0.266737,-0.16262 -0.334249,-0.3066 -0.334249,-0.71054 0,-0.29921 0.02375,-0.36061 0.206381,-0.53763 0.168544,-0.16335 0.335137,-0.24444 0.526042,-0.248 z m -8.009503,4.56833 c -0.08816,-0.007 -0.100102,0.07 -0.06435,0.21239 0.06045,0.24079 0.795285,1.05494 1.597014,1.76951 2.102903,1.87432 3.799943,2.78497 5.760722,3.09148 1.380627,0.21582 2.581227,-0.0101 4.042734,-0.75989 0.826264,-0.42393 1.387908,-0.8408 2.105892,-1.56399 0.421921,-0.42498 0.516601,-0.55305 0.455241,-0.61441 -0.09558,-0.0956 -0.311415,0.0115 -0.862009,0.42691 -0.939725,0.70919 -2.862136,1.58301 -3.809741,1.73132 -0.598203,0.0936 -1.749391,0.0326 -2.420396,-0.12786 -0.842496,-0.20154 -2.110234,-0.79102 -3.083753,-1.43439 -0.311515,-0.20589 -1.090111,-0.7959 -1.730444,-1.31082 -1.233986,-0.99234 -1.796934,-1.40638 -1.990902,-1.42025 z m -0.405049,3.50382 c -0.169225,0.10459 0.390909,0.63623 1.247321,1.18382 0.527495,0.33727 2.055709,1.11246 2.923695,1.48331 0.916261,0.39146 2.4605,0.81123 3.477643,0.9448 1.016753,0.13352 2.695967,0.16285 3.607221,0.0631 1.377596,-0.15085 2.80379,-0.6493 3.808454,-1.33099 0.242691,-0.1647 0.358577,-0.28366 0.344544,-0.35357 -0.03163,-0.15751 -0.227097,-0.12097 -1.244738,0.23298 -0.976724,0.33972 -2.031223,0.59434 -2.893248,0.69854 -1.115211,0.13477 -3.372825,0.0378 -4.532731,-0.1948 -1.397947,-0.2803 -2.940982,-0.87255 -5.072498,-1.94755 -0.886469,-0.44708 -1.636021,-0.79799 -1.665663,-0.77965 z m -29.643377,15.14114 c 0.390244,0.002 0.877793,0.0218 1.379464,0.058 1.39456,0.1007 1.574255,0.17056 1.645072,0.63718 0.05928,0.3904 -0.07108,0.97398 -0.350556,1.56954 -0.147537,0.3144 -0.269377,0.49577 -0.332962,0.49559 -0.05513,-1.5e-4 -0.255867,-0.12873 -0.446232,-0.28535 -0.190373,-0.15657 -0.544208,-0.44414 -0.786492,-0.63931 -0.242292,-0.19516 -0.624582,-0.52757 -0.849562,-0.73887 -0.224988,-0.21129 -0.586205,-0.52534 -0.802368,-0.69768 -0.358493,-0.28583 -0.380322,-0.31705 -0.251442,-0.35441 0.112142,-0.0325 0.404825,-0.047 0.795078,-0.0446 z m 15.350092,3.91788 c -0.227936,1.1e-4 -0.497039,0.13856 -0.854287,0.39346 -0.569997,0.4067 -1.827664,1.63533 -2.309699,2.25605 -1.332054,1.71535 -2.115714,3.45959 -2.586026,5.75818 -0.263838,1.28951 -0.316861,3.40867 -0.09225,3.6793 0.11445,0.13789 0.323214,0.12008 0.739289,-0.0639 1.116017,-0.49355 2.583734,-1.7431 4.358101,-3.70976 0.588248,-0.65201 1.10969,-1.43516 1.541657,-2.31529 0.441865,-0.90028 0.599133,-1.50457 0.641894,-2.4676 0.04077,-0.91859 -0.04949,-1.40699 -0.421779,-2.27838 -0.370982,-0.86831 -0.637012,-1.25223 -1.016903,-1.25203 z m -17.890634,1.57728 c 0.203874,0.01 0.533656,0.0524 1.06839,0.13428 0.725598,0.11112 2.312008,0.33729 2.658105,0.37888 0.386392,0.0464 0.46875,0.15468 0.41835,0.54965 -0.04683,0.36705 -0.135157,0.56817 -0.373721,0.8517 -0.19763,0.23489 -0.286174,0.2415 -0.657346,0.0489 -0.155758,-0.0808 -0.863852,-0.44597 -1.573408,-0.81139 -1.951272,-1.00486 -1.971133,-1.01714 -1.824858,-1.1173 0.02499,-0.0171 0.06244,-0.0282 0.119722,-0.0335 0.04293,-0.004 0.09681,-0.004 0.164766,-0.002 z m -3.148127,4.36067 1.195834,0.0412 c 0.657637,0.0228 1.535645,0.0687 1.950998,0.10125 0.415353,0.0326 1.175417,0.0597 1.689269,0.0605 0.854835,0.002 0.950528,0.0129 1.125025,0.1373 0.240233,0.17107 0.405306,0.54165 0.460397,1.0332 0.05098,0.45493 -0.134651,1.23619 -0.384017,1.6159 -0.204355,0.31118 -0.295324,0.30637 -1.380328,-0.0717 -1.776883,-0.61906 -2.24188,-0.86041 -3.182876,-1.65148 -0.222289,-0.18688 -0.53162,-0.43686 -0.687378,-0.55565 -0.155757,-0.11878 -0.396604,-0.32735 -0.535058,-0.46341 z m -0.932858,5.10272 c 0.06975,-0.01 0.59773,0.0705 1.185587,0.22636 0.587858,0.15589 1.380602,0.34242 1.761348,0.41448 0.380737,0.0721 1.054158,0.23281 1.496613,0.35743 0.732297,0.20626 0.82026,0.24717 0.98129,0.45352 0.09729,0.12469 0.209711,0.32258 0.249723,0.44023 0.08566,0.25189 0.09252,0.82008 0.0142,1.15765 -0.126763,0.54601 -0.952762,1.60318 -1.418091,1.81454 -0.32969,0.14975 -0.830257,0.15186 -1.053386,0.005 -0.164741,-0.10863 -0.941303,-1.12419 -1.718006,-2.24747 -0.207676,-0.30038 -0.668422,-0.94709 -1.0242,-1.43698 -0.670399,-0.92314 -1.116307,-1.13341 -0.828107,-1.17468 z m -2.906915,5.30101 c 0.3326378,0.002 0.7336596,0.0238 1.007902,0.0631 0.2422837,0.0348 1.410194,0.0746 2.595458,0.0884 1.185264,0.0139 2.183476,0.0428 2.218307,0.0644 0.08403,0.0519 0.08079,0.51112 -0.0066,0.9255 -0.175361,0.82887 -0.700323,1.56256 -1.302238,1.82055 v 0 c -0.150684,0.0646 -0.310369,0.11714 -0.354848,0.11714 -0.207652,0 -4.7545564,-2.89572 -4.7545564,-3.02796 0,-0.0374 0.2642121,-0.054 0.5968416,-0.0515 z m 12.165955,1.2589 0.368142,0.14803 c 0.73757,0.29673 1.44632,0.59535 1.815409,0.76462 0.207676,0.0952 0.674923,0.27621 1.038357,0.40204 0.625047,0.21637 0.660036,0.23772 0.649184,0.39603 -0.01694,0.24695 -0.18887,0.57342 -0.47198,0.89504 -0.23281,0.26446 -0.271793,0.28469 -0.54449,0.27803 -0.432109,-0.01 -1.701699,-0.1677 -1.996051,-0.248 l -0.254871,-0.0695 -0.270739,-1.14348 c -0.148957,-0.6291 -0.284953,-1.20671 -0.302074,-1.28336 z m -4.086499,1.26878 c 0.02632,-0.009 0.29857,0.0987 0.604995,0.24027 0.886702,0.40967 2.243848,0.92972 2.732342,1.04693 0.247067,0.0593 0.439715,0.1359 0.428215,0.17035 -0.01146,0.0344 -0.217341,0.0975 -0.457392,0.14031 -0.24005,0.0428 -0.634745,0.12177 -0.877028,0.17549 -0.784824,0.174 -0.842729,0.15944 -1.286362,-0.32481 -0.53843,-0.58773 -1.202568,-1.42796 -1.14477,-1.44854 z m -9.0534481,1.05251 c -1.744e-4,-0.0189 0.5305332,0.0973 1.1795181,0.25831 2.832743,0.70266 2.765605,0.68959 3.551009,0.68908 h 0.735005 l 0.208955,0.36172 c 0.190182,0.32904 0.209304,0.40806 0.208532,0.87102 -6.65e-4,0.45318 -0.02383,0.5536 -0.210243,0.91265 -0.11518,0.22185 -0.31178,0.50951 -0.436799,0.63931 -0.12502,0.12978 -0.246535,0.23598 -0.269883,0.23598 -0.02333,0 -0.265143,-0.15516 -0.537633,-0.34453 -0.272482,-0.18939 -0.778903,-0.54114 -1.125025,-0.78177 -0.6293645,-0.43758 -1.0558187,-0.78142 -2.3375893,-1.88493 -0.6350772,-0.54675 -0.9650912,-0.87353 -0.9658468,-0.9564 z m 14.0199731,0.76547 c 0.204073,-0.002 0.623129,0.0176 1.079117,0.0506 0.607993,0.0441 1.417078,0.0948 1.797815,0.11286 0.956548,0.0455 0.93574,0.0286 0.898916,0.73243 -0.02068,0.39457 -0.06767,0.6479 -0.149746,0.80622 -0.203068,0.39172 -0.855034,1.17833 -1.273492,1.53652 -0.219094,0.18755 -0.431486,0.34063 -0.47198,0.34026 -0.141377,-0.002 -0.63448,-0.53798 -0.952969,-1.03752 -0.347226,-0.54459 -0.601192,-1.07013 -0.937957,-1.93984 -0.185814,-0.47986 -0.201391,-0.56044 -0.115421,-0.59339 0.0137,-0.005 0.05771,-0.007 0.125717,-0.008 z m -1.656654,0.29047 c 0.06975,0.003 0.122902,0.0284 0.202528,0.0768 0.226699,0.13788 0.494996,0.48832 0.661631,0.86502 0.150551,0.34036 0.132384,0.90439 -0.04592,1.41853 -0.123691,0.35666 -0.556373,0.85694 -0.93109,1.07654 -0.473807,0.27766 -0.511221,0.27296 -1.240455,-0.16219 -0.36492,-0.21777 -0.783378,-0.48401 -0.929794,-0.5917 -0.518884,-0.3816 -2.025228,-1.73317 -2.025228,-1.81713 0,-0.055 0.161586,-0.11947 0.456104,-0.18148 1.056766,-0.2225 2.129324,-0.41602 2.658968,-0.47971 0.311507,-0.0374 0.712952,-0.106 0.892041,-0.15233 0.145395,-0.0376 0.231482,-0.0557 0.301211,-0.0524 z m -14.7086286,0.27718 c 0.033627,-0.002 0.080623,-0.002 0.1437345,0 0.084127,0.002 0.1968493,0.008 0.344551,0.0158 1.5789208,0.0835 2.5221085,0.1769 2.6430843,0.26173 0.069248,0.0486 0.31007,0.25865 0.5350584,0.46682 l 0.4089015,0.37846 -0.1634709,0.29949 c -0.095195,0.17402 -0.213854,0.30543 -0.283193,0.31406 -0.065677,0.008 -0.2896195,-0.0428 -0.497296,-0.11326 -0.4297256,-0.14592 -2.9551205,-1.3795 -3.1463901,-1.53695 -0.066425,-0.0546 -0.085895,-0.0801 0.015029,-0.0862 z m 5.0673479,1.942 c 0.036534,0 0.2108151,0.1062 0.3870317,0.23598 0.176199,0.12981 0.475982,0.34308 0.666346,0.47371 0.190365,0.13062 0.439349,0.31742 0.553076,0.41533 l 0.206805,0.17806 -0.944383,0.22958 c -0.519283,0.12623 -0.9662126,0.2264 -0.9933055,0.22225 -0.027068,-0.004 -0.2027279,-0.17415 -0.3904521,-0.37845 l -0.3415469,-0.37158 0.1952302,-0.19051 c 0.1072425,-0.10486 0.2846875,-0.33093 0.3947447,-0.50244 0.1100572,-0.17151 0.2299453,-0.31193 0.2664539,-0.31193 z m -1.9986248,0.66077 0.2076765,0.39304 c 0.124845,0.23607 0.4322498,0.62575 0.7701849,0.97571 0.3093644,0.32037 0.5630648,0.60033 0.563372,0.62259 4.401e-4,0.0223 -0.044338,0.058 -0.099114,0.079 -0.1584725,0.0608 -0.3900203,0.0355 -1.1022914,-0.12012 -1.1754412,-0.2568 -3.7597548,-0.96734 -4.147417,-1.14048 l -0.2831929,-0.12658 0.7238537,-0.17377 c 0.7065733,-0.16967 2.4234414,-0.44392 3.0519924,-0.48744 z m 52.8536745,2.56456 c -0.287527,0.007 -3.089582,1.96063 -4.548606,3.1803 -1.117312,0.93401 -1.393198,1.15831 -2.295543,1.86647 -0.480956,0.37746 -1.061191,0.84776 -1.289791,1.04478 -0.469132,0.40442 -2.427163,1.92324 -3.413278,2.64782 -0.3589,0.26373 -1.148332,0.87051 -1.754049,1.34815 -1.65795,1.30737 -3.25899,2.32029 -5.348824,3.38366 -1.386754,0.70565 -2.746615,1.20489 -5.601121,2.05699 -1.155489,0.34492 -1.516822,0.48633 -1.556677,0.60929 -0.01353,0.0418 0.05306,0.0847 0.152744,0.0982 0.197746,0.0269 0.209943,0.0259 1.206129,-0.11327 1.874951,-0.26195 4.978241,-1.35981 6.866892,-2.42941 0.433694,-0.24561 0.944101,-0.53238 1.134465,-0.63718 0.462897,-0.25481 1.338995,-0.85702 2.485617,-1.70855 0.519191,-0.38557 1.53386,-1.13919 2.254782,-1.67425 1.326574,-0.98459 2.895772,-2.20242 3.751811,-2.91255 0.257545,-0.21364 0.782988,-0.64361 1.167944,-0.95512 0.865603,-0.70047 2.494218,-2.06033 3.083745,-2.57529 0.242283,-0.21165 0.638597,-0.54614 0.880889,-0.74317 0.242284,-0.19704 0.70954,-0.60031 1.038358,-0.89632 0.328818,-0.29603 0.862399,-0.72683 1.185961,-0.95728 0.556339,-0.39623 0.702067,-0.54396 0.618289,-0.62773 -0.0042,-0.004 -0.01046,-0.006 -0.01976,-0.006 z"
       id="path826-3-5"
       inkscape:connector-curvature="0"
       sodipodi:nodetypes="ccccccccccccccccccccccccsccccsccccscscccccccssccscsssssccscccccccccccccccccccccccccccscccsccccccscsccsccsccsccccccccccccccccccccccscscccccscssscsccccssccccccccccscccscccccccccccccccccccccccccccccccccccccccccccsccccccccscccccccccscccccccccccsccccccccccccccccccccccssccscccccccccccsccccccsscccccccccccscccccsccccsccscccccccccsccccccccscscccccssccscsccccccccccccccsccccccccccccccccccsccssccscscscccccccsccccccccccccccccccccscccccccccccccscccccccsccsccccccssscccccccccsccccccccccccccscccscccccccccscsccccccscccscccccscccccccccscsccccccccscccsscccccccccsccccccccccccccccccccccccscssccccccc" />
  </g>
</svg>
